<svg xmlns="http://www.w3.org/2000/svg" version="1.0" width="388.000000pt" height="504.000000pt" viewBox="0 0 388.000000 504.000000" preserveAspectRatio="xMidYMid meet">

<g transform="translate(0.000000,504.000000) scale(0.100000,-0.100000)" fill="#9c27b0" stroke="none">
<path d="M1780 4080 c-149 -5 -207 -10 -247 -24 -47 -15 -133 -72 -188 -123 -11 -10 -51 -44 -90 -75 -38 -32 -82 -69 -98 -83 -15 -13 -78 -67 -140 -119 -61 -52 -122 -110 -135 -129 -19 -29 -183 -438 -242 -603 -10 -28 -61 -165 -113 -305 -99 -261 -147 -424 -167 -564 -8 -55 -10 -269 -8 -681 l3 -601 29 -39 c84 -112 130 -123 531 -123 286 -1 349 5 411 37 36 18 145 97 169 122 35 36 346 290 355 290 5 0 10 -8 11 -17 7 -224 30 -309 99 -362 80 -62 139 -70 487 -70 305 0 366 5 431 38 22 11 148 110 281 221 132 110 245 200 250 200 19 0 90 121 98 168 4 26 8 308 8 627 l-1 580 -27 120 c-37 167 -66 274 -82 304 -13 27 -91 227 -170 441 -97 259 -228 588 -251 627 -28 49 -70 83 -140 115 -48 22 -59 23 -459 28 -225 3 -498 3 -605 0z m995 -121 c50 -14 100 -51 121 -90 20 -39 354 -909 405 -1054 21 -60 50 -155 65 -210 l28 -100 3 -627 c3 -542 2 -631 -11 -656 -17 -34 -529 -466 -570 -482 -17 -6 -158 -10 -374 -10 -382 0 -391 1 -436 63 -20 27 -21 45 -26 315 l-5 287 -56 3 -56 3 -6 -82 c-4 -58 -11 -90 -24 -108 -28 -39 -523 -451 -560 -467 -26 -11 -105 -14 -375 -14 -320 0 -345 1 -374 19 -66 40 -66 38 -61 706 4 671 1 642 84 890 52 158 408 1092 427 1120 14 21 454 396 535 456 65 48 71 48 666 49 375 0 573 -4 600 -11z" fill="#9c27b0"/>
<path d="M1553 3919 c-23 -11 -52 -36 -63 -53 -35 -58 -406 -1030 -449 -1178 -61 -210 -61 -216 -61 -852 0 -563 1 -582 20 -614 11 -18 32 -37 46 -42 40 -15 693 -13 724 3 14 7 33 28 42 47 16 31 18 69 18 323 l0 287 335 0 335 0 0 -286 c0 -240 3 -291 16 -319 30 -63 42 -65 431 -65 383 0 386 1 415 60 17 32 18 83 18 611 0 623 -1 638 -57 832 -31 109 -66 206 -273 742 -89 231 -170 434 -181 452 -11 17 -39 41 -63 52 -41 21 -56 21 -627 21 -572 0 -585 0 -626 -21z m1181 -90 c24 -7 41 -20 51 -39 24 -47 323 -829 330 -864 3 -10 9 -23 14 -30 18 -21 100 -281 120 -381 19 -93 20 -139 21 -667 l1 -568 -328 3 -328 2 -3 333 -2 332 -223 1 c-210 0 -467 0 -604 -1 l-63 0 0 -335 0 -335 -315 1 -315 0 0 558 c0 594 4 661 51 790 11 31 29 87 40 125 18 63 202 553 254 676 12 30 44 114 71 185 67 182 78 203 117 213 46 13 1065 14 1111 1z" fill="#9c27b0"/>
<path d="M1913 3688 c-153 -22 -222 -102 -334 -387 -34 -86 -67 -167 -74 -181 -15 -30 -105 -268 -150 -400 -61 -173 -65 -226 -65 -792 l0 -508 90 -2 c50 -1 102 -2 118 -2 l27 -1 5 330 5 330 625 2 c344 1 635 0 648 -3 l22 -4 0 -324 0 -323 88 -5 c48 -3 102 -4 120 -1 l32 5 0 507 c0 421 -3 523 -16 601 -21 122 -52 221 -107 345 -25 55 -91 208 -147 340 -178 419 -214 463 -394 471 -176 8 -442 9 -493 2z m574 -134 c57 -43 100 -124 250 -477 171 -402 188 -450 208 -587 18 -115 22 -960 5 -960 -6 0 -10 115 -10 325 l0 325 -760 0 -760 0 0 -325 c0 -222 -3 -325 -11 -325 -7 0 -9 150 -7 493 4 467 5 496 25 569 24 86 267 716 315 817 35 73 90 138 133 157 23 11 94 13 307 11 264 -2 278 -3 305 -23z" fill="#9c27b0"/>
<path d="M1897 3546 c-51 -19 -72 -39 -112 -111 -42 -74 -287 -696 -321 -813 -25 -89 -48 -275 -42 -357 l3 -50 753 -3 c702 -2 753 -1 759 15 12 30 -15 304 -37 382 -24 84 -272 676 -333 794 -47 93 -84 132 -135 147 -57 16 -488 12 -535 -4z m550 -148 c17 -26 39 -71 48 -100 10 -29 23 -60 30 -68 7 -8 69 -150 138 -315 129 -309 152 -384 159 -520 l3 -70 -642 -2 c-353 -2 -644 1 -646 5 -9 14 12 188 31 257 22 82 260 691 302 775 48 95 27 89 302 87 l243 -2 32 -47z" fill="#9c27b0"/>
<path d="M2044 3281 c-55 -34 -83 -81 -125 -216 -23 -71 -45 -134 -49 -140 -4 -5 -15 -40 -24 -77 -9 -37 -39 -140 -67 -229 -27 -89 -48 -164 -45 -167 5 -4 252 -5 772 -3 l102 1 -25 78 c-13 42 -40 127 -58 187 -155 507 -167 535 -239 569 -51 24 -201 22 -242 -3z m206 -109 c17 -13 45 -92 115 -317 l92 -300 -290 -3 c-159 -1 -291 -1 -293 1 -1 1 39 137 91 302 69 222 99 304 115 317 31 25 139 25 170 0z" fill="#9c27b0"/>
</g>
</svg>